<?xml version="1.0" encoding="UTF-8" standalone="no"?>
<svg
   xmlns:dc="http://purl.org/dc/elements/1.1/"
   xmlns:cc="http://creativecommons.org/ns#"
   xmlns:rdf="http://www.w3.org/1999/02/22-rdf-syntax-ns#"
   xmlns:svg="http://www.w3.org/2000/svg"
   xmlns="http://www.w3.org/2000/svg"
   xmlns:xlink="http://www.w3.org/1999/xlink"
   id="svg8"
   version="1.1"
   viewBox="0 0 210 297"
   height="297mm"
   width="210mm">
  <defs
     id="defs2">
    <linearGradient
       id="linearGradient6704">
      <stop
         id="stop6700"
         offset="0"
         style="stop-color:#e8b679;stop-opacity:1;" />
      <stop
         id="stop6702"
         offset="1"
         style="stop-color:#e8b679;stop-opacity:0;" />
    </linearGradient>
    <linearGradient
       id="linearGradient6171">
      <stop
         id="stop6167"
         offset="0"
         style="stop-color:#ebc598;stop-opacity:1;" />
      <stop
         id="stop6169"
         offset="1"
         style="stop-color:#ebc598;stop-opacity:0;" />
    </linearGradient>
    <linearGradient
       gradientUnits="userSpaceOnUse"
       y2="204.60501"
       x2="90.645683"
       y1="204.60501"
       x1="77.341095"
       id="linearGradient6177"
       xlink:href="#linearGradient6171" />
    <linearGradient
       gradientUnits="userSpaceOnUse"
       y2="229.69711"
       x2="86.869064"
       y1="229.69711"
       x1="48.651855"
       id="linearGradient6710"
       xlink:href="#linearGradient6704" />
    <filter
       height="2.0084865"
       y="-0.50424325"
       width="1.4670175"
       x="-0.23350877"
       id="filter6860"
       style="color-interpolation-filters:sRGB">
      <feGaussianBlur
         id="feGaussianBlur6862"
         stdDeviation="1.2944744" />
    </filter>
    <filter
       height="1.1275789"
       y="-0.063789452"
       width="1.1132711"
       x="-0.056635531"
       id="filter6880"
       style="color-interpolation-filters:sRGB">
      <feGaussianBlur
         id="feGaussianBlur6882"
         stdDeviation="0.901855" />
    </filter>
  </defs>
  <metadata
     id="metadata5">
    <rdf:RDF>
      <cc:Work
         rdf:about="">
        <dc:format>image/svg+xml</dc:format>
        <dc:type
           rdf:resource="http://purl.org/dc/dcmitype/StillImage" />
        <dc:title></dc:title>
      </cc:Work>
    </rdf:RDF>
  </metadata>
  <g
     id="layer2" />
  <g
     id="layer4" />
  <g
     id="layer1">
    <g
       id="g7176" />
    <g
       transform="translate(44.433559,-74.250816)"
       id="g7127">
      <g
         id="g5400">
        <g
           id="g5274">
          <g
             id="g5162">
            <g
               id="g5032">
              <g
                 id="g4719" />
            </g>
          </g>
        </g>
        <g
           id="g7483"
           transform="translate(32.502486,41.43174)">
          <path
             style="fill:none;stroke:none;stroke-width:0.26458332px;stroke-linecap:butt;stroke-linejoin:miter;stroke-opacity:1"
             d="m 64.93885,203.33274 0.0771,-0.0859 0.8427,0.0167 0.22323,-0.21206 0.65854,-0.0112 1.38961,-0.0112 0.21765,-0.2344 0.91525,0.006 3.39312,-0.0167 1.37481,0.0124 h 1.18387 l -0.93131,0.69454 -0.0316,0.2052 0.25256,0.0473 1.08915,-0.77345 h 0.94709 l 1.08916,-0.20521 0.9313,0.0316 -0.44197,0.44198 -0.77346,0.67875 v 0.17363 l 0.22099,-0.0158 1.19964,-1.07337 0.36306,0.0158 -0.41041,0.82081 0.0316,0.17364 0.17363,-0.0158 0.52879,-0.97866 0.25163,-0.005 0.23439,1.4e-4 -0.22881,0.70876 -0.0168,0.25114 0.20091,-0.006 0.27904,-0.93199 0.94489,-0.002 -0.26834,0.7261 v 0.20521 h 0.18942 l 0.25255,-0.74189 0.48933,0.0316 0.47355,-0.0158 4.07249,0.0316 1.5627,0.22099 3.93042,-0.0474 2.43087,0.0316 5.66675,0.0157 2.55715,-0.0314 1.70476,0.0631 1.21544,-0.0158 0.83659,-0.20528 0.67875,-0.31561 0.47354,-0.34727 0.66297,-0.0947 c 0,0 0.14206,0 0.11049,-0.23677 l -0.0316,-0.23678 -0.74084,-0.21842 0.067,-0.61389 -0.0781,-0.5804 -0.30136,-0.27904 0.83712,-1.3059 -0.36833,-0.99338 -0.0781,-0.44647 0.0112,-1.04918 -0.0557,-1.03803 -0.13394,-1.35055 0.34598,-1.21661 0.20094,-1.19392 0.24545,-0.62541 -0.44647,-0.87061 v -0.97105 l -0.70317,-1.00454 0.78132,-0.40183 -0.0893,-0.46878 -0.66969,-0.24556 0.067,-0.64737 v -0.65853 l -0.49112,-0.31252 -0.0112,-0.92641 -0.13397,-1.21661 0.8706,-0.44647 1.56932,-1.28108 1.73443,-1.30828 2.18767,-1.69655 5.5803,-3.94038 -2.02045,1.01023 -5.17743,3.28325 -4.35662,2.65185 -1.19964,0.37884 h -0.44198 l -0.0947,-0.12628 1.95732,-1.35749 2.77813,-2.14674 4.70389,-2.87284 -6.18766,3.40952 -3.14119,2.38351 -0.47354,-0.44197 0.45776,-0.25256 0.0158,-0.42619 -0.85239,-0.0631 0.26835,-0.44198 -0.0474,-0.55247 -0.74188,-0.12628 -0.22099,-1.19964 -0.25256,-0.55248 1.84683,-1.95731 5.54047,-7.73458 5.05115,-7.13475 2.90441,-4.10405 1.07337,-1.19965 0.44198,-0.50512 -0.82081,0.3157 -1.95732,2.3993 -1.13651,1.26278 -0.56826,0.75768 -1.56674,1.71493 -0.31252,0.55807 -1.29474,1.94212 -2.00909,2.6118 -3.72796,5.51382 -1.1608,0.51343 -0.35717,-0.0223"
             id="path5150" />
          <path
             style="fill:none;stroke:#000000;stroke-width:0.26458332px;stroke-linecap:butt;stroke-linejoin:miter;stroke-opacity:1"
             d="M 71.1548,180.06426 Z"
             id="path5158" />
          <path
             style="fill:#eba486;fill-opacity:1;stroke:none;stroke-width:0.26458332px;stroke-linecap:butt;stroke-linejoin:miter;stroke-opacity:1"
             d="m 47.31048,160.05389 0.26726,-1.78226 0.44646,-0.49111 h 0.75899 l 0.89292,-0.35717 0.44647,-0.26788 0.71434,-0.0893 1.02686,0.35717 0.22323,0.26788 0.13394,0.62505 1.33939,-0.40182 1.83049,0.35717 1.38404,0.26788 1.02686,1.42868 v 0 l -0.45209,1.03279 v 0 l -1.51535,0.0631 -1.26279,0.18942 -1.7679,-0.94709 -2.14674,-0.18942 z"
             id="path5263" />
          <path
             style="fill:#88581a;fill-opacity:1;stroke:none;stroke-width:0.26458332px;stroke-linecap:butt;stroke-linejoin:miter;stroke-opacity:1"
             d="m 46.7597,197.97322 0.37884,-0.75767 0.7261,-0.28413 0.53668,-0.0631 0.12628,-0.47354 0.44198,-0.75767 0.97866,-0.3157 0.41041,0.22099 0.0947,0.69453 -0.12627,0.37884 -0.50512,0.59982 h -0.82081 l -0.56826,0.34727 -0.97865,0.12627 0.15784,1.38907 -0.4104,0.25256 -0.44198,-0.0947 z"
             id="path5769" />
          <path
             style="fill:#ecc79b;fill-opacity:1;stroke:none;stroke-width:0.26458332px;stroke-linecap:butt;stroke-linejoin:miter;stroke-opacity:1"
             d="m 17.93354,190.11684 2.67877,-3.5717 1.69656,-1.60727 3.30383,-2.67877 2.3216,-1.33939 1.96444,-1.87514 3.03595,-1.2501 3.66099,-0.53575 h 1.42868 l 4.09463,0.32048 0.72717,2.09042 -2.23231,0.44646 -2.05373,-0.0893 -2.05373,0.0893 -1.60727,1.1608 -1.60726,1.1608 v 1.96444 l -0.35717,1.33939 -0.62505,4.64321 -0.0893,2.50019 0.98222,1.78585 3.46007,1.40637 -0.37945,2.67877 -5.13435,-3.01363 -2.94666,-1.33939 -2.58948,0.26788 -3.21453,-0.53576 -3.21453,-0.26787 -3.14757,-0.55808 z"
             id="path5808" />
          <path
             style="fill:#664114;fill-opacity:1;stroke:none;stroke-width:0.26458332px;stroke-linecap:butt;stroke-linejoin:miter;stroke-opacity:1"
             d="m 56.10433,193.36405 0.94709,1.19965 0.56825,-0.0631 0.3157,0.75767 0.88395,0.0631 0.69453,-0.3157 0.44198,-0.0631 v -0.18941 l -1.01023,-0.50512 -0.50512,-1.01023 -0.44197,-0.0631 0.37883,-0.56825 0.88396,-0.18942 0.37883,-1.32593 c 0,0 -1.19965,1.13651 -0.82081,-0.12628 0.37884,-1.26278 0.37884,-1.26278 0.37884,-1.26278 l -1.38907,0.69453 -0.44198,0.88395 -0.88395,0.44198 0.18942,0.50511 h 0.75767 l -0.18941,0.94709 z"
             id="path6084" />
          <g
             id="g7299">
            <path
               style="fill:#c4938c;fill-opacity:1;stroke:none;stroke-width:0.26952618px;stroke-linecap:butt;stroke-linejoin:miter;stroke-opacity:1"
               d="m -31.460779,188.56131 1.506972,-0.50511 0.15674,-0.23864 0.32431,-0.37949 0.27798,-0.53576 0.254814,-0.51343 0.37064,-0.60273 0.0695,-0.91524 v -1.09384 l 0.162155,-1.49565 0.04633,-1.1608 0.04633,-1.36171 v -5.51382 l 0.09266,-1.85282 0.138989,-1.00454 0.162156,-1.1608 -0.09266,-0.71434 -0.393805,-0.40182 -0.0695,-1.27242 -0.162155,-0.40181 -0.231649,-0.24556 -0.27798,-0.26787 h -0.50963 l -0.02316,-0.35718 v -0.15626 l 0.231651,-0.13394 0.579124,-0.26787 0.115825,-0.42414 0.0695,-0.91525 -0.115825,-0.62505 -0.162155,-0.2902 -0.138991,-0.95989 -0.324309,-0.24556 -0.64862,-0.64737 -0.764445,-0.31252 -0.718115,-0.33485 -0.440134,-0.24555 -0.83394,-0.71435 -0.78761,-0.37949 -0.579125,-0.0893 -0.671784,0.2902"
               id="path5244" />
            <g
               id="g7230">
              <path
                 id="path5246"
                 d="m -34.548136,160.11455 -0.959907,0.0893 -0.937572,-0.13394 -0.892925,0.15626 -0.312524,0.35717 -0.156262,0.5804 -0.02232,0.62505 -0.468786,0.22323 -0.156262,0.60273 v 1.27241 l -0.580401,0.6697 -0.312524,0.73666 -0.223232,0.82596 -0.04465,1.27242 -0.401816,0.33485 v 0.91524 l 0.156262,1.38404 0.200908,0.51343 0.446463,0.66969 0.446462,0.64738 0.334847,0.5804 0.468786,0.75898 0.334847,0.75899 0.133939,0.71434 0.267878,0.35717 0.312524,0.62505 0.223231,0.75898 0.424139,0.78131 0.156263,0.69202 v 0.73666 l -0.04465,1.11616 0.02232,1.80818 0.379493,3.92887 0.312524,0.78131 0.78131,1.33939 0.758987,0.73666 1.160803,0.51343 1.410374,-0.28311 v 0"
                 style="fill:#c4938c;fill-opacity:1;stroke:none;stroke-width:0.26458332px;stroke-linecap:butt;stroke-linejoin:miter;stroke-opacity:1" />
              <g
                 id="g7172">
                <path
                   id="path5176"
                   d="m 50.68844,208.29239 1.10837,0.11707 2.52252,-0.24555 3.8619,-0.22323 1.07151,-0.3795 2.34393,-0.35717 3.2815,-0.66969 0.45861,-0.48335 -2.14673,0.25256 -2.65186,0.1263 -0.88395,-0.6314 -1.57848,-1.42063 -0.91552,-0.22099 -0.75768,0.12628 -0.22098,0.44197 0.0631,0.6314 0.12627,0.50511 1.23122,0.53669 0.78924,0.56825 -1.98889,0.0947 -1.23121,-0.56826 -0.66297,-0.37883 -1.29435,-0.15785 -0.78925,0.22099 -0.0631,0.47354 0.15784,0.6314 v 0.50511 l -1.57848,0.0631 z"
                   style="fill:#edb192;fill-opacity:1;stroke:none;stroke-width:0.26458332px;stroke-linecap:butt;stroke-linejoin:miter;stroke-opacity:1" />
                <g
                   id="g7121">
                  <path
                     style="fill:#e1baab;fill-opacity:1;stroke:none;stroke-width:0.26458332px;stroke-linecap:butt;stroke-linejoin:miter;stroke-opacity:1"
                     d="m -35.06892,174.3591 h -1.26278 l -0.44198,-0.88395 0.0632,-0.82081 h 0.94708 l 0.88394,0.88395 z"
                     id="path5849" />
                  <path
                     style="fill:#dab2a6;fill-opacity:1;stroke:none;stroke-width:0.26458332px;stroke-linecap:butt;stroke-linejoin:miter;stroke-opacity:1"
                     d="m -32.73276,173.85399 1.51535,0.25255 0.6314,-0.0631 v 1.38907 l -0.6314,0.44197 v 1.38907 l 0.50512,1.7679 -0.56825,0.6314 -0.82081,-0.12628 h -0.50512 l -0.56827,-0.0631 0.18944,-1.26279 0.12626,-1.70476 v -1.01023 z"
                     id="path5892" />
                  <path
                     style="fill:#dbb09f;fill-opacity:1;stroke:none;stroke-width:0.26458332px;stroke-linecap:butt;stroke-linejoin:miter;stroke-opacity:1"
                     d="m -32.70119,173.09631 1.01023,-0.15784 0.25257,-0.56826 0.7261,0.25256 0.6314,0.25256 0.82079,0.31569 0.44199,-0.12628 0.0316,-0.59982 -0.25254,-0.28413 -0.3157,-0.44197 -0.66297,-0.0631 -0.37883,-0.59983 -0.41042,-0.15785 -1.0418,-0.22099 -0.25254,0.28413 -0.47356,0.3157 -0.34726,0.4104 v 0.82082 z"
                     id="path5937" />
                  <path
                     style="fill:#e7a78e;fill-opacity:1;stroke:none;stroke-width:0.26458332px;stroke-linecap:butt;stroke-linejoin:miter;stroke-opacity:1"
                     d="m -32.03823,168.86598 0.0631,0.88395 0.63141,0.53668 0.88394,0.0631 0.75769,0.0631 0.37883,-0.47355 -0.0947,-0.53668 0.18944,-0.66296 -0.3157,-0.72611 -0.15785,-0.4104 -0.59984,1.07337 -0.41039,0.0316 0.34726,-0.88395 0.0316,-0.28413 -0.82082,-0.12628 -0.34726,0.25256 -0.0947,1.0418 -0.37886,0.0316 z"
                     id="path5984" />
                  <path
                     style="fill:#b76c59;fill-opacity:1;stroke:none;stroke-width:0.26458332px;stroke-linecap:butt;stroke-linejoin:miter;stroke-opacity:1"
                     d="m -34.21331,186.63443 0.62505,0.5804 0.75898,0.26788 0.62506,-0.0447 0.62505,-0.26787 0.66968,-0.0893 h 0.40183 0.66968 l -0.49109,0.75898 -0.58042,0.40182 -0.49109,0.31252 -0.89294,0.22323 -1.11615,-0.22323 -0.66968,-0.35717 -0.35719,-0.71434 z"
                     id="path6033" />
                  <g
                     id="g7072">
                    <path
                       id="path5156"
                       d="m 65.33678,206.0509 0.9198,-0.0692 1.36109,-0.0176 0.98846,0.012 0.59792,-0.23298 7.7345,-0.055 4.57758,0.0624 0.66296,0.22102 5.67475,0.009 0.43399,0.22848 12.02814,-5.3e-4 5.76147,-0.0145 0.55237,-0.17526 0.67875,-0.31444 0.47354,-0.34727 0.001,-0.78747 0.067,-0.61389 -0.0781,-0.57921 -0.30149,-0.2806 0.32378,-0.43374 0.0669,-2.31201 -0.0444,-2.08684 -0.13394,-1.35055 0.34582,-3.90692 -0.42405,-1.90825 -0.25672,-1.18314 0.0112,-1.90863 -0.66973,-1.39519 0.9599,-0.90409 11.07163,-8.22666 -13.19612,7.32417 10e-6,-1.40485 0.0158,-0.4262 -0.85239,-0.0631 -0.52093,-1.12073 -0.22099,-1.19965 1.59437,-2.50964 10.52848,-15.94268 4.4829,-4.73546 -6.36216,7.00846 -7.03179,10.06774 -1.1608,0.51343 -0.35717,-0.0223 -0.17828,1.70636 -1.54691,0.14207 -0.18942,1.81526 -1.54692,0.0316 -0.44197,0.4104 -0.67264,0.67187 -0.17858,-0.98222 -0.89293,-0.26788 -0.53575,-0.66969 -0.35717,-0.17859 1.12172,-2.25136 2.96755,-5.42998 2.77814,-6.2508 1.64162,-3.66208 -4.4829,8.14498 -1.38906,3.09383 -1.13651,2.0836 -1.38907,2.96754 -1.32592,-1.07336 0.31569,-2.20988 1.64163,-4.41976 1.32592,-4.48289 1.95732,-7.57673 1.19965,-6.94533 0.69453,-4.73545 -4.35661,19.13123 -2.27302,6.88219 -1.38906,2.0836 c 0,0 -3.66209,1.70476 -1.83105,-0.0631 1.83105,-1.7679 1.83105,-1.7679 1.83105,-1.7679 l -1.95732,0.12628 -0.15785,-1.32593 -0.88395,-0.44198 1.25792,-20.71817 v -1.78585 l -0.71434,5.53614 -1.42868,16.60841 -1.02687,-1.25009 -2.50019,-2.27696 -7.41128,-3.21453 v 0.40181 l 0.22323,0.5804 0.53575,0.53576 v 0.62505 l 0.0893,0.98221 0.44646,0.35718 0.0446,0.71434 -0.26788,0.80363 v 1.11616 l 0.5804,0.53575 0.84828,0.62505 0.49111,0.80363 0.53576,1.11616 0.22322,0.66969 0.13394,0.93757 v 0.80364 l 0.25205,0.11009 0.26045,0.071 -0.066,1.47079 0.62504,0.35717 -0.17858,0.89292 -0.93757,-0.0446 0.0446,0.89293 -0.66969,0.5804 -1.07151,0.66969 -1.07151,0.22323 -0.84828,0.89293 -1.20545,0.49111 h -1.87514 l -1.07151,0.13394 -0.93758,0.17858 -0.71434,1.33939 -1.25009,0.93757 -1.56262,0.0893 -0.80363,-0.53575 -0.98222,0.17858 -0.44646,-0.17858"
                       style="fill:#685244;fill-opacity:1;stroke:none;stroke-width:0.26458332px;stroke-linecap:butt;stroke-linejoin:miter;stroke-opacity:1" />
                    <path
                       id="path5146"
                       d="m 15.361959,196.04332 0.568254,-2.52557 1.515346,-2.46243 1.641623,-2.02047 1.831041,-2.02045 1.7679,-1.83105 1.957322,-1.70476 1.199647,-0.82081 1.957321,-1.38907 1.831041,-1.57848 1.515346,-0.94709 -2.462437,1.70476 -1.767901,-0.12628 -0.378836,-0.94709 -0.252558,-1.64162 v -1.19965 l 0.252558,-0.82081 0.315696,-0.82081 0.694533,-1.57849 0.94709,-1.70476 0.757674,-0.75767 2.146736,-2.33616 1.389068,-1.07337 2.273017,-1.70476 1.262787,-0.50511 2.399295,-1.45221 2.336157,-1.45221 1.578483,-0.88395 1.325928,-0.69453 1.452205,-0.44198 1.894185,-0.25255 1.70476,0.0631 h 1.64162 l 2.14674,0.18942 1.7679,0.94709 1.26279,-0.18942 1.51535,-0.0631 0.94708,0.50512 1.19965,-0.9471 0.44198,-0.50511 v -1.01023 l 0.25256,-1.7679 0.56825,-1.07337 1.4522,-1.51535 1.07337,-0.12628 0.37884,-0.88395 1.45221,-0.18942 0.31569,-0.31569 1.26279,-0.3157 0.61713,-0.2098 0.40182,0.17859 h 0.80363 0.53576 l 0.13393,-0.53576 0.80364,-0.17858 0.31252,0.53575 h 1.33939 1.38403 l 0.26788,0.62505 1.60727,-0.17858 0.84828,1.07151 0.80363,0.71434 h 0.93757 v 0.35717 l 0.22323,0.66969 0.53576,0.75899 0.49111,0.75898 0.5804,1.07151 -0.17859,0.58041 -0.17858,0.44646 1.07151,0.49111 0.35717,0.35717 0.53575,0.84828 0.40182,0.98221 0.84828,0.22324 v 0.40181 l 0.22323,0.5804 0.53575,0.53576 v 0.62505 l 0.0893,0.98221 0.44646,0.35718 0.0446,0.71434 -0.26788,0.80363 v 1.11616 l 0.5804,0.53575 0.84828,0.62505 0.49111,0.80363 0.53576,1.11616 0.22322,0.66969 0.13394,0.93757 v 0.80364 c 0,0 0.62505,0.31252 0.5804,0.0893 -0.0446,-0.22324 -0.0446,-0.26788 -0.0446,-0.26788 l -0.0893,1.8305 0.62504,0.35717 -0.17858,0.89292 -0.93757,-0.0446 0.0446,0.89293 -0.66969,0.5804 -1.07151,0.66969 -1.07151,0.22323 -0.84828,0.89293 -1.20545,0.49111 h -0.75899 -1.11615 l -1.07151,0.13394 -0.93758,0.17858 -0.71434,1.33939 -1.25009,0.93757 -1.56262,0.0893 -0.80363,-0.53575 -0.98222,0.17858 -0.44646,-0.17858 v 1.25009 1.69656 l -0.35717,1.8305 -0.58041,2.05372 -0.5804,2.23232 -0.80363,1.51797 -0.0446,2.58948 -0.0893,2.09838 -0.69822,2.12749 -0.97866,1.38907 -0.47354,0.78924 -0.0631,1.73633 -0.85238,1.10494 -0.69454,0.85238 -2.14673,0.25256 -1.89418,0.0947 -0.75768,0.0316 -0.88395,-0.6314 -0.63139,-0.59982 -0.94709,-0.82081 -0.91552,-0.22099 -0.75768,0.12628 -0.22098,0.44197 0.0631,0.6314 0.12627,0.50511 1.23122,0.53669 0.78924,0.56825 -1.98889,0.0947 -1.23121,-0.56826 -0.66297,-0.37883 -1.29435,-0.15785 -0.78925,0.22099 -0.0631,0.47354 0.15784,0.6314 v 0.50511 l -1.57848,0.0631 -0.25256,0.44198 -2.0836,-0.0947 -9.66032,0.53668 -0.599824,0.59983 -1.483775,0.50511 -2.115169,0.15785 -0.631394,0.4104 h -1.641623 l -1.294358,-1.16807 -0.978659,-0.66297 -1.136507,-0.37883 -1.389068,0.0631 -1.294355,0.0947 -1.010232,0.0947 -1.673193,0.12627 -0.789242,0.12628 -1.136507,0.15785 -1.325927,0.18942 -1.862611,-0.12628 -0.694534,-0.15785 -1.578483,-0.94709 -1.01023,-0.97866 -0.757674,-1.0418 -0.378835,-1.79947 0.09471,-1.26279 0.220988,-1.92575 0.284125,-2.74656 0.505116,-1.79947 z"
                       style="fill:#cea265;fill-opacity:1;stroke:none;stroke-width:0.26458332px;stroke-linecap:butt;stroke-linejoin:miter;stroke-opacity:1" />
                    <path
                       id="path5242"
                       d="m -29.561701,209.87088 -1.420636,0.50512 -1.231217,0.75767 -0.694533,0.85238 -0.883951,1.89418 -0.846336,2.47624 -0.06697,0.79247 0.04465,0.69202 0.237265,0.42746 v 0 l 0.298491,0.34264 -0.915249,-0.067 -0.825956,0.0223 -0.692017,0.0223 -0.892926,0.067 -0.625047,-0.22323 -0.312524,-0.5804 -0.156262,-0.49111 -0.06697,-0.89292 0.02232,-0.62505 0.178585,-0.69202 0.267878,-0.84827 0.223231,-0.6697 0.401817,-0.75899 0.625048,-0.60272 0.513432,-0.44646 0.558078,-0.49111 0.870602,-0.60273 0.758987,-0.66969 0.535755,-0.11162 z"
                       style="fill:#866a54;fill-opacity:1;stroke:none;stroke-width:0.26458332px;stroke-linecap:butt;stroke-linejoin:miter;stroke-opacity:1" />
                    <g
                       id="g7235">
                      <path
                         style="fill:#e7e1d5;fill-opacity:1;stroke:none;stroke-width:0.26458332px;stroke-linecap:butt;stroke-linejoin:miter;stroke-opacity:1"
                         d="m -38.076133,218.43243 -1.317065,-0.37944 -1.294742,-0.17859 -1.651912,-0.31252 -0.892926,-0.26788 -1.250095,-0.5804 -0.758987,-0.75899 -1.07151,-0.89292 -0.580402,-1.02687 -1.205449,-1.96443 -1.160803,-0.62505 -1.026865,-1.38404 -0.223231,-1.56262 0.446463,-2.00908 0.625048,-1.96443 -0.714341,-4.15211 0.178585,-2.85736 0.178585,-3.43776 0.669694,-3.16988 0.84828,-2.63413 1.294741,-2.81272 1.473327,-2.76807 1.428681,-3.25918 0.982218,-1.7412 0.446463,-1.56262 0.491109,-2.32161 1.160803,-4.10745 1.652845,-4.40757 -0.223232,0.82596 -0.04465,1.27242 -0.401816,0.33484 v 0.91525 l 0.156262,1.38404 0.200908,0.51343 0.892925,1.31706 0.803633,1.33939 0.334847,0.75899 0.133939,0.71434 0.267878,0.35717 0.312524,0.62505 0.223231,0.75898 0.424139,0.78131 0.156263,0.69202 0.0063,0.50027 -0.0079,0.29202 -0.01973,0.39068 -0.01184,0.38278 -0.01184,0.28018 0.02272,1.81506 0.379493,3.92888 0.312524,0.78131 0.78131,1.33939 0.758987,0.73666 1.160803,0.51343 1.410374,-0.28311 v 0 0 l -0.0063,-0.0488 1.382134,-0.45631 0.48105,-0.61813 0.903434,-1.65192 0.0695,-2.00908 0.162155,-1.49565 0.06139,-2.15544 0.123929,-7.73371 0.301145,-2.16534 -0.09266,-0.71434 -0.393805,-0.40182 -0.0695,-1.27242 -0.162155,-0.40181 -0.509629,-0.51343 h -0.50963 l -0.02316,-0.51344 0.810775,-0.40181 0.115825,-0.42414 0.0695,-0.91525 -0.115825,-0.62505 -0.162155,-0.2902 -0.138991,-0.95989 -0.972929,-0.89293 v 0 l 0.4122,-0.32494 0.133939,-0.0447 0.692017,-0.0893 1.13848,-0.0447 1.049188,-0.0446 0.848279,0.40181 1.517973,1.16081 0.892926,0.80363 1.875143,-0.80363 0.892925,-2.05373 h 1.517974 l 1.964436,-0.17859 1.785851,-1.42868 2.589483,-0.53575 2.232314,-0.89293 3.393117,-0.71434 0.892925,-1.1608 1.696558,-0.26788 2.143021,-1.1608 2.589484,0.26788 1.607266,1.1608 1.428681,0.89292 2.143021,-2.3216 1.785851,0.98222 2.142948,-0.44646 3.214531,-0.44646 2.053729,-0.44647 1.607266,-0.0893 1.785842,0.17859 -0.267878,1.42868 v 1.51797 l 0.714341,4.73251 -0.982218,-0.71434 -0.357169,-1.42868 0.08929,-0.80363 -0.625046,-0.80364 -1.071512,-0.44646 h -0.625046 l -0.0893,0.89292 -0.357169,0.53576 -0.193181,2.78351 -0.536675,1.32593 -0.789242,0.25256 -0.315697,0.47354 -0.347267,1.07337 -0.09471,0.78924 -0.252557,0.6314 -0.631394,0.50511 -0.473545,0.0631 -0.378836,0.28413 -1.325927,1.98889 -3.788361,4.79859 -3.093829,3.69365 -0.631394,1.13651 -1.136509,1.32593 -0.347266,0.94709 v 0.7261 l 0.662963,2.55714 0.189418,1.61006 0.631394,1.64162 0.220988,2.11517 0.441975,0.47355 0.947091,0.53668 1.073369,0.0316 1.136508,-0.0631 0.915521,-0.44197 1.01023,-0.37884 0.568254,-0.69453 2.430866,-1.86262 0.694533,-1.01022 v -0.69454 l -0.336993,-2.42034 v -3.661 l 0.803632,-1.07151 2.500191,-2.14302 2.946654,-2.05373 3.750286,-3.92887 1.33939,-2.3216 0.803632,-2.32161 0.714341,-2.94666 -0.17859,-5.53614 -0.446463,-1.33938 0.08929,-1.69656 3.389066,-0.0345 3.662083,-0.25256 2.778132,0.18942 h 5.303706 l 4.356616,0.18942 4.419755,0.44197 h 2.14674 l 4.79859,-0.0631 3.22011,-0.18942 1.64162,0.25256 2.02046,1.32593 -0.56825,1.07337 -0.25256,1.7679 v 1.01023 l -1.64163,1.45221 -0.94708,-0.50512 0.45209,-1.03279 -1.02686,-1.42868 -3.21453,-0.62505 -1.33939,0.40182 -0.13394,-0.62505 -0.22323,-0.26788 -1.02686,-0.35717 -0.71434,0.0893 -0.44647,0.26788 -0.89292,0.35717 H 48.0242 l -0.44646,0.49111 -0.26726,1.78226 -1.894185,0.25256 -1.452205,0.44197 -7.639863,4.4829 -1.262787,0.50511 -3.662085,2.77813 -2.90441,3.09383 -0.94709,1.70477 -1.010229,2.39929 -0.252558,0.82081 v 1.19965 l 0.252558,1.64162 0.378836,0.94709 1.767901,0.12628 -0.88395,0.82082 -3.156968,2.20987 -1.957322,1.70477 -3.280181,3.44774 -1.960383,2.42422 -1.515346,2.46243 -0.568254,2.52557 -0.599816,2.02037 -0.599823,5.9351 0.378835,1.79947 0.757674,1.0418 1.01023,0.97866 1.578483,0.94709 -2.462448,0.15792 -9.123638,-0.25255 -2.87284,-0.37883 -7.608292,-0.1578 -6.629636,0.53668 h -3.125398 l -4.385448,0.31856 -2.52831,0.34441 -8.713233,0.53668 -4.094455,0.0788 -0.535755,0.11162 -0.758987,0.66969 -0.870602,0.60273 -1.696558,1.54029 -0.401817,0.75895 -0.669694,2.20999 0.04465,1.51797 z"
                         id="path5267" />
                    </g>
                    <g
                       id="g7338">
                      <path
                         style="fill:#d09d8c;fill-opacity:1;stroke:none;stroke-width:0.26458332px;stroke-linecap:butt;stroke-linejoin:miter;stroke-opacity:1"
                         d="m 17.887542,208.76581 0.694534,0.15785 1.862611,0.12628 3.251674,-0.47355 5.366848,-0.37877 2.115166,1.0418 1.294358,1.16807 0.568248,1.19968 -0.441976,2.30459 -1.16808,1.16808 -1.136507,0.91552 -1.546915,0.50511 -2.052029,0.50512 -1.957322,0.22099 -2.336154,0.22099 -1.988891,0.18941 H 18.14009 l -2.967551,-0.0631 -2.8097,-0.31569 -1.831041,-0.18942 -3.977781,-0.91552 -2.84127,-0.3157 -3.504237,-0.0316 -5.114287,0.0316 -1.546916,0.50512 -4.072487,0.94709 -2.241447,0.18941 -3.94621,0.78925 -2.651853,0.15785 -4.767024,0.0316 -5.745681,-0.0316 -4.546034,-0.15785 -0.237265,-0.42746 -0.04465,-0.69202 0.06697,-0.79247 0.246512,-0.70834 0.599824,-1.7679 0.883951,-1.89418 0.694533,-0.85238 0.662963,-0.37884 0.568254,-0.37883 1.420636,-0.50512 1.262787,-0.12628 4.167197,-0.18942 3.283249,-0.22098 1.294355,-0.25256 5.619403,-0.41041 h 3.125398 l 3.756793,-0.31569 2.872843,-0.22099 3.662082,0.0947 h 1.957319 l 1.988891,0.0631 2.87284,0.37883 3.441097,0.15785 2.904411,0.0947 h 2.77813 z"
                         id="path5240" />
                      <g
                         id="g5767"
                         transform="translate(258.84482,86.79237)">
                        <g
                           id="g5730">
                          <g
                             id="g5695">
                            <g
                               id="g5662">
                              <g
                                 id="g5629">
                                <g
                                   id="g5574">
                                <g
                                   id="g5476">
                                <g
                                   id="g5451">
                                <g
                                   id="g5422">
                                <g
                                   id="g5402">
                                <g
                                   id="g5384">
                                <g
                                   id="g5368">
                                <g
                                   id="g5354">
                                <g
                                   id="g5342">
                                <path
                                   style="fill:#361300;fill-opacity:1;stroke:none;stroke-width:0.26458332px;stroke-linecap:butt;stroke-linejoin:miter;stroke-opacity:1"
                                   d="m -182.78845,81.205439 v 0.236773 l 0.4104,0.03157 0.0316,-0.410405 0.45776,-0.06314 -0.0158,-0.899735 -0.28413,-0.457761 -0.50511,-0.06314 z"
                                   id="path5310" />
                                <g
                                   id="g5334">
                                <g
                                   id="g5328">
                                <path
                                   style="fill:#854c2f;fill-opacity:1;stroke:none;stroke-width:0.26458332px;stroke-linecap:butt;stroke-linejoin:miter;stroke-opacity:1"
                                   d="m -191.43855,73.107816 -0.31569,-0.284125 -0.0316,-1.515346 0.22098,-0.789241 0.13278,-0.511913 0.36833,-0.234392 0.42414,-0.212071 2.33277,0.01117 0.90409,0.479946 0.46878,0.245555 0.47995,0.457626 0.22323,0.479946 0.0335,1.138481 -0.0558,0.71434 -0.24556,0.234392 -4.72134,0.01116 z"
                                   id="path5302" />
                                <path
                                   style="fill:#451c00;fill-opacity:1;stroke:none;stroke-width:0.26458332px;stroke-linecap:butt;stroke-linejoin:miter;stroke-opacity:1"
                                   d="m -195.77938,74.457421 -0.008,-0.45776 0.26045,-0.228881 h 0.85238 l 0.48933,-0.244665 1.77579,0.02368 0.44198,-0.307806 V 70.96108 l 0.26834,-0.236771 0.0856,0.0028 -0.17241,0.581234 0.0316,1.515345 0.31569,0.284126 0.21856,0.225525 4.72134,-0.01116 0.24556,-0.234394 0.0558,-0.714338 -0.005,-0.248243 0.18942,0.0158 0.0118,0.939199 0.21705,0.213096 0.008,0.469598 0.23283,0.449868 -0.50927,0.270225 -2.50019,-0.03349 -2.45554,0.01117 -0.90409,-0.245554 V 74.03653 l -0.51343,-0.01116 0.0558,0.41298 0.25672,0.334846 -0.0335,0.870601 -0.22324,0.658534 -0.2009,0.982218 -0.0335,0.200906 -0.4353,-0.01117 v -2.611808 l -0.50227,-0.189746 0.0223,-0.412977 -0.26788,-0.267878 h -0.50227 l -0.36833,0.279038 h -0.5804 l -0.0893,0.212071 z"
                                   id="path5304" />
                                </g>
                                <path
                                   id="path5318"
                                   d="m -192.55927,81.016022 0.69453,-0.03157 -0.0631,-0.978659 -0.2052,-1.310142 -0.48933,-0.04735 -0.2052,1.452205 0.0316,0.91552 z"
                                   style="fill:#451c00;fill-opacity:1;stroke:none;stroke-width:0.26458332px;stroke-linecap:butt;stroke-linejoin:miter;stroke-opacity:1" />
                                </g>
                                </g>
                                <path
                                   id="path5344"
                                   d="m -216.44173,91.039396 0.50511,-0.378836 0.82081,-0.820811 0.7261,-0.599824 0.78925,-0.505116 0.31569,-0.473546 h 0.6314 v -0.315696 l -0.82081,0.06314 -0.3157,0.441973 h -0.7261 l -0.53669,-0.06314 -0.15785,0.631394 -0.50511,0.441976 -0.59983,0.220988 -0.0631,0.284125 -1.16808,-0.09471 v 0.883949 l 0.82081,0.03157 z"
                                   style="fill:#8c5b16;fill-opacity:1;stroke:none;stroke-width:0.26458332px;stroke-linecap:butt;stroke-linejoin:miter;stroke-opacity:1" />
                                </g>
                                <g
                                   id="g7240">
                                <path
                                   style="fill:#cf9a94;fill-opacity:1;stroke:none;stroke-width:0.26458332px;stroke-linecap:butt;stroke-linejoin:miter;stroke-opacity:1"
                                   d="m 10.967797,185.68444 -0.267878,-2.3216 v -3.661 l 0.803632,-1.07151 2.500191,-2.14302 2.946654,-2.05373 1.696559,-1.78585 2.053727,-2.14302 1.33939,-2.32161 0.803632,-2.3216 0.714341,-2.94666 -0.0893,-3.39311 -0.08929,-2.14303 -0.446463,-1.33938 0.08929,-1.69656 -0.357172,-2.14302 -1.250095,-0.62505 -0.892927,-0.17859 -0.08929,1.16081 -0.892927,0.62505 -1.517972,1.07151 -0.267878,1.42868 v 1.51797 l 0.446463,3.12524 0.267878,1.60727 -0.982218,-0.71435 -0.357169,-1.42868 0.08929,-0.80363 -0.625046,-0.80363 -1.071512,-0.44646 h -0.625046 l -0.0893,0.89292 -0.357169,0.53576 -0.08929,1.1608 -0.103891,1.62271 -0.536675,1.32593 -0.789242,0.25255 -0.315697,0.47355 -0.157849,0.47354 -0.189418,0.59983 -0.09471,0.78924 -0.252557,0.63139 -0.631394,0.50512 -0.473545,0.0631 -0.378836,0.28413 -0.505115,0.75767 -0.820812,1.23122 -3.91464,4.98801 -2.96755,3.50423 -0.631394,1.13651 -1.136509,1.32592 -0.347266,0.9471 v 0.7261 l 0.410406,1.61005 0.252557,0.94709 0.189418,1.61006 0.631394,1.64162 0.220988,2.11517 0.441975,0.47354 0.947091,0.53669 1.073369,0.0316 1.136508,-0.0631 0.915521,-0.44198 1.01023,-0.37883 0.568254,-0.69454 0.915521,-0.56825 1.515345,-1.29436 0.694533,-1.01023 v -0.69453"
                                   id="path5265"
                                   transform="translate(-258.84482,-86.79237)" />
                                <path
                                   id="path5356"
                                   d="m -244.08205,71.657773 0.0446,-1.205449 0.31253,-0.223232 h 0.31252 l 0.35717,0.04465 0.31252,0.357171 0.49111,0.758987 0.26788,0.803632 v 0.892926 h -0.31252 l -0.26788,-0.84828 -0.49111,-0.401815 h -0.66969 z"
                                   style="fill:#dfcdc3;fill-opacity:1;stroke:none;stroke-width:0.26458332px;stroke-linecap:butt;stroke-linejoin:miter;stroke-opacity:1" />
                                </g>
                                </g>
                                <path
                                   id="path5370"
                                   d="m -297.29951,77.518926 v -1.696559 l 0.80362,0.982218 0.62505,0.714341 h 0.40182 l 0.4911,0.446463 0.44646,0.535755 0.80364,0.04465 0.89292,-0.178584 0.0447,-0.625049 0.49109,0.357172 0.49112,0.491109 -1.02687,0.08929 -0.22323,0.669694 -0.13393,0.758987 -0.71435,0.04465 -0.53576,-0.714341 -1.38403,-0.535755 -0.58039,-0.535755 z"
                                   style="fill:#b14d3e;fill-opacity:1;stroke:none;stroke-width:0.26458332px;stroke-linecap:butt;stroke-linejoin:miter;stroke-opacity:1" />
                                </g>
                                <path
                                   style="fill:#d8cdc9;fill-opacity:1;stroke:none;stroke-width:0.26458332px;stroke-linecap:butt;stroke-linejoin:miter;stroke-opacity:1"
                                   d="m -190.14847,112.43231 v -0.5804 l 0.31252,-0.80363 v -0.26788 l 1.16081,-0.75899 0.40181,-1.20545 0.6697,-1.07151 0.62505,-0.66969 1.33938,-1.42868 1.29475,-0.98222 2.58948,-1.69656 1.1608,-0.93757 1.02687,-0.84828 2.45554,-1.741205 1.60727,-0.312523 1.07151,0.13394 1.56262,0.223228 0.31252,0.71434 0.13394,1.20545 -0.17859,1.47333 -0.26787,1.07151 -0.40182,1.87514 -1.02686,0.6697 -0.75899,0.5804 -0.35717,0.53575 -0.17859,0.75899 -0.0446,0.53576 v 0.80363 l 0.31252,0.62505 0.31253,0.89292 0.98221,1.11616 1.56262,0.66969 1.2501,0.31253 -1.29474,1.1608 -2.72342,-1.33939 -0.80364,-1.20545 -0.98222,-1.38403 -1.87514,1.11615 -1.8305,2.54484 -0.0893,1.33939 -1.91979,0.62505 -0.89293,-0.17859 -0.0446,-1.47332 -1.38403,-0.58041 -2.05373,-0.22323 -2.09838,-0.0446 -0.93757,-0.40182 v -0.62505 z"
                                   id="path5386" />
                                </g>
                                <path
                                   id="path5404"
                                   d="m -171.21841,113.32524 1.37353,-0.62904 0.44197,-1.70477 v -1.26278 l -0.12628,-1.19965 -0.12628,-1.64162 -0.75767,-0.9471 -1.13651,-0.88394 -1.72253,0.76832 -1.78585,1.2501 -0.53576,1.29474 -0.0446,1.33939 0.62505,1.51797 0.98221,1.11616 z"
                                   style="fill:#c57f75;fill-opacity:1;stroke:none;stroke-width:0.26458332px;stroke-linecap:butt;stroke-linejoin:miter;stroke-opacity:1" />
                                </g>
                                <path
                                   style="fill:#d8cdc9;fill-opacity:1;stroke:none;stroke-width:0.26458332px;stroke-linecap:butt;stroke-linejoin:miter;stroke-opacity:1"
                                   d="m -173.27218,105.82466 1.72253,-0.76832 1.13651,0.88394 0.75767,0.9471 0.25256,2.84127 -0.44197,2.96755 1.30521,0.0486 1.11615,-0.44646 0.62505,-0.26788 0.53576,-0.62504 v -0.53576 l 0.98221,-0.13394 0.17859,-1.25009 0.40181,-0.84828 -0.44646,-1.20545 -0.5804,-0.62505 -0.89292,-0.49111 -0.84828,-0.84828 -1.38404,-0.31252 -1.02686,-0.35717 -0.44646,-0.53576 -1.60727,-0.40181 -1.20545,0.75898 z"
                                   id="path5428" />
                                <path
                                   style="fill:#d8cdc9;fill-opacity:1;stroke:none;stroke-width:0.26458332px;stroke-linecap:butt;stroke-linejoin:miter;stroke-opacity:1"
                                   d="m -172.51315,114.48604 3.97348,-1.74124 -1.30521,-0.0486 -1.37353,0.62904 z"
                                   id="path5430" />
                                </g>
                                <path
                                   id="path5453"
                                   d="m -160.62654,102.2782 1.01023,0.12628 -0.0631,-1.32592 -0.0631,-0.82082 0.37884,-0.820808 v -1.578486 l -0.56826,-1.073369 -0.25255,0.568256 0.18941,1.894181 -0.50511,0.568254 -0.69453,0.252562 0.12628,2.27301 z"
                                   style="fill:#1f1611;fill-opacity:1;stroke:none;stroke-width:0.26458332px;stroke-linecap:butt;stroke-linejoin:miter;stroke-opacity:1" />
                                </g>
                                <path
                                   style="fill:#764922;fill-opacity:1;stroke:none;stroke-width:0.26458332px;stroke-linecap:butt;stroke-linejoin:miter;stroke-opacity:1"
                                   d="m -205.26607,101.99407 -0.42619,-0.25255 -0.34726,-0.66296 -0.0474,-0.88396 0.33148,-0.59982 0.45776,-0.07892 0.67875,0.205203 0.41041,0.12628 0.26834,0.315687 0.55247,0.14207 0.0789,0.6156 -0.28412,0.34727 -0.44198,0.15785 -0.42619,0.25256 z"
                                   id="path5549" />
                                </g>
                                <path
                                   id="path5576"
                                   d="m -244.10349,112.99039 0.2902,-0.067 -0.24555,-0.40182 v -0.40181 h 0.93757 l -0.0893,-1.51798 0.067,-0.53575 0.31253,0.24555 0.51343,-0.62505 -0.20091,-0.40181 -0.53575,-0.20091 -0.2902,-0.66969 0.71434,-0.31253 0.44643,-0.64734 -0.62505,-0.93757 -0.51343,0.0223 -0.49111,0.93758 -0.0447,0.78131 -0.26787,0.66969 0.0446,1.2501 -0.26788,0.82595 -0.24555,0.46879 0.17858,0.89292 z"
                                   style="fill:#a9732d;fill-opacity:1;stroke:none;stroke-width:0.26458332px;stroke-linecap:butt;stroke-linejoin:miter;stroke-opacity:1" />
                              </g>
                              <path
                                 style="fill:#613f11;fill-opacity:1;stroke:none;stroke-width:0.26458332px;stroke-linecap:butt;stroke-linejoin:miter;stroke-opacity:1"
                                 d="m -244.84015,115.6022 0.15626,1.80817 0.0223,1.36171 0.35717,1.07151 0.55808,0.64737 0.84828,0.80363 1.40636,0.93758 0.44646,0.24555 1.78585,-0.0446 0.75899,0.0446 -0.24556,-0.53575 -1.00454,-0.35717 -0.55808,-0.15627 -0.42414,-0.31252 -0.37949,-0.73666 -0.71434,-0.35717 -0.42414,-0.73667 -0.8706,-0.40181 -0.20091,-0.82596 -0.37949,-0.44646 v -0.82596 l -0.46879,-0.5804 z"
                                 id="path5633" />
                            </g>
                            <path
                               id="path5664"
                               d="m -222.62863,110.75807 0.067,0.75899 0.46878,0.35717 -0.46878,0.0893 0.0223,0.46879 v 0.2902 l 0.0223,1.02686 0.20091,0.89293 0.91525,0.22323 0.33484,0.3795 h 0.64737 l 0.35717,-0.46879 0.13394,-0.91525 0.2902,-0.46878 v -0.75899 l 0.82596,-0.33485 0.35717,-0.35717 -0.51343,-0.46878 -0.3795,-0.58041 0.44647,-0.44646 -1.07151,-0.53575 -0.69202,-1.18313 h -0.82596 l -0.69201,0.55808 z"
                               style="fill:#624010;fill-opacity:1;stroke:none;stroke-width:0.26458332px;stroke-linecap:butt;stroke-linejoin:miter;stroke-opacity:1" />
                          </g>
                          <path
                             style="fill:#624010;fill-opacity:1;stroke:none;stroke-width:0.26458332px;stroke-linecap:butt;stroke-linejoin:miter;stroke-opacity:1"
                             d="m -218.45422,111.94121 1.02688,0.4911 1.47333,-0.17859 0.84827,-0.31252 -0.44646,-0.5804 -1.7412,0.22323 z"
                             id="path5697" />
                        </g>
                        <path
                           id="path5732"
                           d="m -218.69976,111.76262 0.84828,-0.0447 -0.0446,0.49111 -0.91526,0.0893 z"
                           style="fill:#624010;fill-opacity:1;stroke:none;stroke-width:0.26458332px;stroke-linecap:butt;stroke-linejoin:miter;stroke-opacity:1" />
                      </g>
                    </g>
                    <path
                       id="path6137"
                       d="m 70.16968,196.81378 0.0446,-2.09837 0.44647,-1.47333 0.71434,-1.47333 0.98222,-1.38403 1.25009,-1.87514 1.42868,-0.75899 2.05373,-0.22323 2.18767,0.44646 -2.18767,1.78585 -3.88423,2.67878 -1.96443,2.09837 -0.6697,1.07151 z"
                       style="fill:#887567;fill-opacity:1;stroke:none;stroke-width:0.26458332px;stroke-linecap:butt;stroke-linejoin:miter;stroke-opacity:1" />
                    <path
                       id="path6192"
                       d="m 91.37666,192.25983 v 0 0 l 0.84338,-1.23194 -0.12628,-1.4522 -1.32592,-0.94709 -1.45221,-1.01023 -1.19965,-0.37884 -2.14152,-0.96227 0.44646,1.91979 -0.17859,1.47333 -0.53575,1.74117 1.20545,-0.75898 1.60727,0.40181 0.44646,0.53576 1.02686,0.35717 z"
                       style="fill:#91847e;fill-opacity:1;stroke:none;stroke-width:0.26458332px;stroke-linecap:butt;stroke-linejoin:miter;stroke-opacity:1" />
                  </g>
                </g>
              </g>
            </g>
          </g>
          <path
             style="fill:#9f877b;fill-opacity:1;stroke:none;stroke-width:0.26458332px;stroke-linecap:butt;stroke-linejoin:miter;stroke-opacity:1"
             d="m 78.5188,200.27781 0.78924,0.28413 0.41041,0.63139 0.12628,0.7261 0.47354,0.56826 0.88395,0.34726 1.54692,-0.4104 1.0418,-0.50512 1.26279,-0.0631 1.27794,-0.57788 -2.72342,-1.33939 -1.78586,-2.58948 -1.87514,1.11615 z"
             id="path6249" />
        </g>
      </g>
      <g
         id="g7009">
        <g
           id="g6963">
          <g
             transform="translate(229.53385,113.70206)"
             id="g6430">
            <g
               id="g6416">
              <g
                 id="g6404">
                <g
                   id="g6394">
                  <g
                     id="g6386">
                    <path
                       style="fill:#9d463c;fill-opacity:1;stroke:none;stroke-width:0.26458332px;stroke-linecap:butt;stroke-linejoin:miter;stroke-opacity:1"
                       d="m -112.38807,122.41966 h 1.0418 l 1.54692,0.22099 0.0316,0.69453 -2.62029,-0.0316 z"
                       id="path6380" />
                    <path
                       style="fill:#904e52;fill-opacity:1;stroke:none;stroke-width:0.26458332px;stroke-linecap:butt;stroke-linejoin:miter;stroke-opacity:1"
                       d="m -110.49389,121.47257 0.56826,-0.22099 0.15785,-0.37883 -0.41041,-0.47355 h -0.63139 l -0.15785,0.44198 z"
                       id="path6382" />
                  </g>
                  <path
                     id="path6388"
                     d="m -111.21999,125.51349 -0.18941,-0.69453 0.12627,-0.34727 0.72611,-0.22099 0.66296,0.3157 0.15785,0.53668 v 0.91552 h 0.50511 l 0.44198,0.37884 0.7261,0.47354 0.0316,0.34727 -1.01023,-0.22099 -1.48377,-0.47354 z"
                     style="fill:#7c2921;fill-opacity:1;stroke:none;stroke-width:0.26458332px;stroke-linecap:butt;stroke-linejoin:miter;stroke-opacity:1" />
                </g>
                <path
                   style="fill:#99716f;fill-opacity:1;stroke:none;stroke-width:0.26458332px;stroke-linecap:butt;stroke-linejoin:miter;stroke-opacity:1"
                   d="m -120.15421,124.5664 -0.50511,-0.75768 -0.12628,-0.88395 0.18942,-0.97866 -0.15785,-1.07336 -0.53669,-0.88396 -0.59982,-0.97866 -0.12628,-1.29435 0.12628,-0.34727 h 0.94709 l 0.28413,0.50512 0.18942,0.85238 -0.12628,0.59982 0.25256,0.91552 0.4104,0.6314 0.0947,0.59982 0.59982,0.50511 0.37884,1.13651 0.0316,0.69453 -0.28413,0.69454 -0.7261,0.78924 -0.59982,1.0418 -0.47355,0.7261 -0.12628,0.7261 -0.25256,1.16808 -0.15784,1.42064 -0.34727,0.31569 -0.15785,-0.82081 0.22099,-0.94709 0.28413,-1.26278 0.25255,-0.85239 0.53669,-0.82081 z"
                   id="path6396" />
              </g>
              <path
                 id="path6406"
                 d="m -120.75403,120.87275 -0.7261,0.75767 -0.18942,0.69453 -0.37884,0.7261 -0.22099,0.85238 -0.18941,0.50512 v 0.75767 0.75767 l 0.31569,0.53669 0.94711,0.34726 0.53669,-0.82081 0.50509,-1.42063 -0.50511,-0.75768 -0.12628,-0.88395 0.18942,-0.97866 z"
                 style="fill:#b88c89;fill-opacity:1;stroke:none;stroke-width:0.26458332px;stroke-linecap:butt;stroke-linejoin:miter;stroke-opacity:1" />
            </g>
            <path
               style="fill:#372710;fill-opacity:1;stroke:none;stroke-width:0.26458332px;stroke-linecap:butt;stroke-linejoin:miter;stroke-opacity:1"
               d="m -130.8879,133.34277 1.19965,-2.20988 0.25256,-1.51534 0.82081,-2.14674 0.56825,-1.7679 0.37884,-2.58872 1.01023,-1.89418 0.75767,-2.0836 0.44198,-1.51534 1.38906,-2.0836 1.70476,-2.14674 0.25256,-1.13651 -0.88395,-1.32593 -1.7679,-0.50511 -1.13651,-0.25256 0.25256,2.0836 -0.12628,1.70477 0.25256,1.70476 -0.82081,0.69453 -1.32593,-1.01023 -0.12628,1.45221 1.26279,1.32592 -0.12628,1.26279 -1.19965,0.37884 v 1.57848 l -0.37883,2.46243 -0.69454,2.65186 -1.4522,1.38906 -0.3157,1.76791 v 1.95732 z"
               id="path6418" />
          </g>
          <path
             id="path7564"
             d="m 122.78094,245.96871 1.42064,-0.0316 1.10494,-0.3157 0.53668,-0.41041 0.34727,-0.69453 0.12628,-0.85238 -0.47355,-0.66296 -0.44197,-0.50512 -0.41041,-0.56825 0.12628,-0.47355 -0.12628,-0.53668 -0.44198,-0.66296 -1.23121,0.37883 -1.7679,-0.0631 -0.78925,-0.31569 -0.97866,0.18941 -1.07337,0.56826 -0.78924,1.42063 -0.0316,1.86262 0.6314,1.23121 1.32592,0.66296 h 0.66297 l 0.94709,0.12628 z"
             style="fill:#6c5547;fill-opacity:1;stroke:none;stroke-width:0.26458332px;stroke-linecap:butt;stroke-linejoin:miter;stroke-opacity:1" />
          <path
             id="path7647"
             d="m 59.992006,222.55371 2.76807,-1.87514 1.87515,-0.80363 2.23231,-0.44646 3.03595,-0.0893 2.67877,0.26788 2.32161,-0.44646 2.05373,-1.69656 2.05373,-1.33939 1.96443,-0.89293 2.05373,-1.51797 1.96444,-0.98223 h 1.87514 l -0.44646,1.42869 -2.85737,0.98222 -0.62504,2.14302 -0.62505,1.42868 -2.85736,0.62504 -1.51798,1.1608 0.53576,1.42869 2.85736,-0.62505 0.89293,1.51797 -1.60727,0.89293 0.35717,0.98222 -3.21453,1.87514 -1.69656,-0.62504 -0.80363,-1.2501 -2.94666,-2.05372 -1.25009,0.0893 -2.94666,0.62504 -2.23231,1.1608 -0.26788,2.94665 -0.89292,2.5002 -0.62505,2.58949 1.60727,1.33938 1.87514,3.12524 0.62505,1.16081 0.17858,3.03594 -0.35717,2.32161 -0.35717,3.12524 -2.85736,-2.05373 -0.26788,-2.5002 -2.50019,-1.16079 -3.12524,-2.05373 -1.69656,-1.07151 -3.66099,-2.23232 -3.21453,0.89293 -1.69656,-1.60727 0.89293,-2.14302 3.66099,-3.92887 1.96444,-2.50019 2.94665,-2.67878 z"
             style="opacity:1;fill:url(#linearGradient6710);fill-opacity:1;stroke:none;stroke-width:0.26458332px;stroke-linecap:butt;stroke-linejoin:miter;stroke-opacity:1;filter:url(#filter6880)" />
          <g
             id="g4610"
             transform="translate(249.87882,4.2459299)">
            <path
               style="fill:#805451;fill-opacity:1;stroke:none;stroke-width:0.26458332px;stroke-linecap:butt;stroke-linejoin:miter;stroke-opacity:1"
               d="m -140.64293,233.76592 c 0.25255,-0.12627 0.25255,-0.12627 0.25255,-0.12627 l -0.0631,-0.26835 0.0789,-0.34726 0.56825,-0.25256 v -0.25256 l -0.44197,-0.23677 -0.50512,0.36305 -0.45776,0.2052 0.0316,0.45776 z"
               id="path4604" />
            <path
               style="fill:#6f452c;fill-opacity:1;stroke:none;stroke-width:0.26458332px;stroke-linecap:butt;stroke-linejoin:miter;stroke-opacity:1"
               d="m -162.80485,243.39468 0.53668,0.25255 0.44198,0.3157 0.41041,0.0631 0.44197,0.22099 v -0.37884 l -0.0631,-0.25256 0.0631,-0.7261 -0.31569,-0.22099 -0.50512,-0.0631 -0.0631,0.47354 -0.53668,-0.0316 -0.25256,-0.22099 z"
               id="path4606" />
          </g>
          <path
             id="path4612"
             d="m 90.29408,245.69907 0.25256,-0.0316 -0.008,-0.2131 -0.23677,-0.23677 -0.17363,-0.27623 -0.53669,-0.008 -0.35516,0.2131 -0.48933,0.29202 -0.0473,0.26045 0.44987,-0.0237 0.0237,-0.18942 h 0.43408 l 0.26834,0.18942 z"
             style="fill:#81521e;fill-opacity:1;stroke:none;stroke-width:0.26458332px;stroke-linecap:butt;stroke-linejoin:miter;stroke-opacity:1" />
          <path
             id="path4620"
             d="m 118.46213,237.98028 c 0.46565,-0.008 0.46565,-0.008 0.46565,-0.008 l 0.23677,0.27623 v 0.22888 l -0.44987,-0.0158 -0.008,0.42619 -0.2052,0.0631 -0.23678,-0.25256 -0.22098,-0.22099 -0.0395,-0.26045 z"
             style="fill:#5b0d03;fill-opacity:1;stroke:none;stroke-width:0.26458332px;stroke-linecap:butt;stroke-linejoin:miter;stroke-opacity:1" />
          <path
             style="fill:#a15243;fill-opacity:1;stroke:none;stroke-width:0.26458332px;stroke-linecap:butt;stroke-linejoin:miter;stroke-opacity:1"
             d="m -5.61237,211.08654 0.47355,-0.0631 0.17363,-0.42619 0.28413,-0.22098 -0.0158,-0.25256 -0.56825,-0.0316 -0.36305,0.23677 -0.72611,0.0316 -0.17363,0.33148 z"
             id="path4721" />
          <path
             style="fill:#b75142;fill-opacity:1;stroke:none;stroke-width:0.26458332px;stroke-linecap:butt;stroke-linejoin:miter;stroke-opacity:1"
             d="m -1.93412,208.60033 0.26788,-0.44646 -0.0446,-0.55808 0.42414,-0.26788 0.22323,-0.37949 0.69202,0.31252 0.64737,0.22323 h 0.53576 l 0.51343,-0.37949 0.067,-0.75899 -0.22323,-0.2902 -0.0893,-0.53575 -0.42414,0.067 v 0.46878 l 0.0446,0.71434 -0.46878,0.13394 -0.60273,-0.11161 -0.31252,-0.33485 -0.40182,-0.49111 -0.0223,-0.69202 -0.17859,-0.53575 -0.26787,-0.49111 -0.22324,-0.42414 -0.42413,-0.46879 h -0.3795 l -0.0446,0.22323 0.17858,0.31253 0.35717,0.33485 0.22323,0.49111 0.55808,0.62504 v 0.26788 l 0.0223,0.5804 v 0.42414 l -0.24555,0.13394 -0.17859,0.15626 -0.60272,-0.0446 -0.80363,-0.40182 -0.51344,-0.26788 -0.49111,-0.46878 h -0.42414 l -0.66969,-0.0893 -0.0893,0.4911 0.29014,0.64732 0.44646,0.37949 0.35717,0.62505 0.2902,0.0893 0.40182,0.51343 z"
             id="path4723" />
          <path
             style="fill:#342311;fill-opacity:1;stroke:none;stroke-width:0.26458332px;stroke-linecap:butt;stroke-linejoin:miter;stroke-opacity:1"
             d="m 104.73482,222.58544 -0.66969,-0.53576 -0.31253,-1.451 -0.2902,-0.44646 -0.24555,-0.73667 0.0893,-0.78131 0.26788,-0.55807 -0.17858,-0.3795 -0.62505,-0.26788 -0.69202,-0.17858 -0.42414,-0.40182 -0.22323,-0.0223 -0.067,0.49111 0.17858,0.44646 0.58041,0.3795 0.37949,0.26787 0.13394,0.60273 0.0893,0.51343 -0.13394,0.46879 0.24556,0.60272 0.2009,0.44646 0.15627,0.2902 v 0.62505 l -0.15627,0.46879 -0.26787,0.69201 -0.33485,0.42415 -0.0893,0.55807 0.11161,0.71434 0.46879,0.69202 0.24555,0.46879 0.71434,-0.0223 0.2902,-0.22324 0.5804,-0.2902 0.3795,-0.89292 -0.0223,-0.82596 -0.24556,-1.02686 z"
             id="path4824" />
          <path
             style="fill:#603502;fill-opacity:1;stroke:none;stroke-width:0.26458332px;stroke-linecap:butt;stroke-linejoin:miter;stroke-opacity:1"
             d="m 96.74314,214.23659 0.78131,0.0223 0.0446,0.40181 0.24555,0.40182 0.22323,0.44646 0.13394,0.55808 0.26788,0.53576 0.71434,0.20091 0.53575,0.33484 0.78131,-0.11162 -0.17858,-0.40181 -0.60273,-0.24556 -0.0893,-0.37949 -0.20091,-0.35717 -0.53575,-0.2902 -0.35717,-0.73666 -0.22323,-0.53576 -0.31253,-0.26788 -0.73666,-0.26787 -0.62505,0.2902 -0.24555,0.17858 z"
             id="path4826" />
          <path
             style="fill:#b6782b;fill-opacity:1;stroke:none;stroke-width:0.26458332px;stroke-linecap:butt;stroke-linejoin:miter;stroke-opacity:1"
             d="m 85.105536,212.32976 1.1608,0.11161 0.40182,-0.42414 0.37949,-0.51343 h 0.55808 l 0.60272,-0.0893 0.35718,-0.33485 0.35717,-0.55808 -0.17859,-0.53576 -0.2902,-0.15626 0.26788,-0.55808 0.49111,-0.11161 0.78131,-0.5804 0.49111,-0.33485 0.17858,-0.69202 v -0.44646 l -0.26788,-0.17858 -0.53575,-0.0446 -0.35717,-0.0447 -0.49111,0.0223 -0.13394,0.44646 -0.20091,0.49111 h -0.55808 l -1.42868,-0.0223 -0.42414,0.26788 -0.31252,0.51343 -1.13848,0.11162 -1.13848,0.0893 -0.26788,0.37949 -0.78131,0.0223 -0.24555,0.5804 -0.0893,0.46878 -0.8706,0.17859 h -0.64737 l -0.66969,0.60272 -0.20091,0.53576 -0.40182,1.18312 -0.62505,0.84828 -0.15626,1.20545 0.46879,0.62505 0.5804,0.11162 0.89293,-0.22324 0.62504,-0.26787 -0.22323,-0.62505 0.2902,-0.2902 0.42414,-0.11162 0.42414,0.0893 h 0.55808 l 0.26788,-0.35718 0.60272,-0.40181 0.35717,-0.5804 0.60273,-0.24556 z"
             id="path4931" />
          <path
             id="path5036"
             d="m 0.15983,214.79793 0.12628,-0.44198 v -0.37883 l -0.66296,-0.15785 0.15785,-0.91552 0.0631,-0.37884 0.53668,-0.25256 0.0316,-0.4104 0.0631,-0.6314 -0.50511,-0.66296 -0.59983,-0.15785 -0.50511,0.12628 -0.66297,0.18942 h -0.37883 l 0.28412,0.82081 -0.0631,0.50512 -0.12627,0.7261 -0.3157,0.25256 -0.41041,0.0947 -0.50511,0.0631 v 0.37884 l 0.41041,0.0631 0.59982,0.25256 0.59982,0.4104 0.69454,0.56826 0.85238,0.85238 h 0.34726 z"
             style="fill:#ad635a;fill-opacity:1;stroke:none;stroke-width:0.26458332px;stroke-linecap:butt;stroke-linejoin:miter;stroke-opacity:1" />
          <path
             style="fill:#c99087;fill-opacity:1;stroke:none;stroke-width:0.26458332px;stroke-linecap:butt;stroke-linejoin:miter;stroke-opacity:1"
             d="m 51.50652,198.58723 1.2501,-0.66969 0.75898,-0.44646 0.0893,-0.35717 0.22324,-1.16081 0.53575,-0.0446 0.49111,0.17858 -0.0446,1.11616 -0.17858,0.84828 -0.40182,0.44646 -0.71434,-0.0447 -0.66969,0.17859 -0.89293,0.75899 -0.0446,1.29474 0.31252,0.89292 -0.0893,0.75899 v 0.84828 l 0.13394,0.62505 -0.17859,1.11616 -0.66969,-0.17859 -0.35717,-0.80363 -0.0893,-0.58041 -0.26788,-0.89292 0.0893,-1.29474 -0.17859,-1.38404 -0.0446,-1.29474 -0.0893,-1.7412 0.31252,-0.0893 0.26788,0.40182 0.35717,0.53576 v 0.53575 z"
             id="path5034" />
          <path
             id="path5042"
             d="m 47.93482,201.31066 -0.17859,-0.93758 v -0.75898 h 0.49111 l 0.93757,0.49111 0.44647,0.62504 0.0893,1.91979 v 0.58041 0.40181 h -0.40182 v -0.44646 -0.84828 l -0.26787,-0.44646 -0.35718,-0.5804 z"
             style="fill:#d9c8c0;fill-opacity:1;stroke:none;stroke-width:0.26458332px;stroke-linecap:butt;stroke-linejoin:miter;stroke-opacity:1" />
          <path
             style="fill:#c5934c;fill-opacity:1;stroke:none;stroke-width:0.26458332px;stroke-linecap:butt;stroke-linejoin:miter;stroke-opacity:1"
             d="m 68.206926,238.17992 -0.88395,-1.38907 -0.37883,-2.14674 -1.64163,-1.64162 -1.38906,-1.51535 0.88395,-1.38906 h 1.13651 l 1.64162,0.37883 1.01023,-0.63139 v -1.13651 l 0.63139,-0.75767 3.03069,-0.88395 1.7679,-1.13651 -0.50511,-1.7679 1.26279,-0.25256 1.26278,0.75767 -1.1365,2.02046 -1.51535,1.38907 -0.88395,2.02046 0.12628,2.02046 -1.38907,1.1365 -0.63139,2.3993 z"
             id="path5164" />
          <path
             id="path5276"
             d="m 70.65475,219.10944 -1.95732,-0.18942 -1.45221,0.25258 -2.0836,0.63137 -1.4522,1.07339 -1.70476,0.63137 -1.01023,1.07339 -1.01023,-0.37885 -0.75768,-1.19965 0.18942,-0.63138 0.88395,0.18942 1.45221,-0.18942 0.63139,-0.69453 1.19965,-0.50511 0.94709,-0.31571 1.51535,-0.82081 0.18941,-1.57848 0.56826,-0.18941 0.75767,0.50511 0.63139,0.56825 1.26279,-0.50512 0.18942,-0.9471 0.82081,0.56827 1.07337,0.75766 1.32593,0.12629 -0.50512,-0.88395 0.94709,-0.37886 0.3157,-0.44196 0.94709,0.12629 0.63139,0.37883 h 0.82082 l 1.1365,0.94708 -0.56825,0.82081 -1.19965,0.37883 -0.56825,-0.31567 -1.19965,-0.12629 0.44197,0.88395 v 0.69453 l -1.26278,-0.37883 -1.01023,-0.25257 z"
             style="fill:#a57823;fill-opacity:1;stroke:none;stroke-width:0.26458332px;stroke-linecap:butt;stroke-linejoin:miter;stroke-opacity:1" />
          <path
             id="path5278"
             d="m 74.06427,219.42514 1.08052,-0.0801 h 0.49111 l 0.26788,-0.37949 0.24555,-0.0893 0.44646,-0.20093 0.46879,-0.62505 0.35717,-0.33483 0.62505,-0.24556 0.2902,-0.31253 0.44646,-0.35716 0.6697,-0.22323 -0.0223,-0.24556 -0.69202,-0.067 -0.22323,0.13393 -0.5804,0.2009 h -0.42414 l -0.20091,-0.33483 -0.46879,0.2009 -0.17858,0.15626 0.49533,0.46739 -0.56825,0.82081 -1.19965,0.37883 -0.56825,-0.31567 -1.19965,-0.12629 0.44197,0.88395 z"
             style="fill:#794800;fill-opacity:1;stroke:none;stroke-width:0.26458332px;stroke-linecap:butt;stroke-linejoin:miter;stroke-opacity:1" />
          <path
             id="path5280"
             d="m 87.95493,212.00628 0.37884,-0.22101 0.50512,-0.47352 0.0316,-0.85239 -0.12628,-0.47355 0.28412,-0.47355 0.75768,0.22098 0.25255,-0.47352 0.59983,-0.15785 -0.0316,-0.82082 0.4104,-0.6314 -0.0947,-0.44198 -0.91551,-0.0316 -0.3157,-0.3157 -0.59983,0.4104 -0.22098,0.50512 -0.37884,0.85238 -0.75767,-0.34726 -1.48378,-0.0632 -0.66296,0.82082 -1.48378,0.18942 -0.50511,0.34726 -0.82081,0.25257 -0.28413,0.47355 0.28413,0.63138 0.53668,0.56827 0.0631,0.82079 -0.56825,0.44199 -0.28413,0.66296 v 0.59981 l 0.12628,0.28414 0.66296,-0.41039 0.6314,-0.53669 0.47354,-0.44198 0.37884,-0.50512 0.44197,-0.0316 0.28413,0.25254 0.59982,0.25257 0.44198,-0.28413 0.4104,-0.3157 z"
             style="fill:#c08332;fill-opacity:1;stroke:none;stroke-width:0.26458332px;stroke-linecap:butt;stroke-linejoin:miter;stroke-opacity:1" />
          <path
             style="fill:#624010;fill-opacity:1;stroke:none;stroke-width:0.26458332px;stroke-linecap:butt;stroke-linejoin:miter;stroke-opacity:1"
             d="m 70.683095,236.95079 -0.07687,-1.29645 0.631388,-2.3993 1.389071,-1.1365 -0.455986,-0.23513 -0.178586,0.15626 -0.825955,0.73666 -0.491109,0.71434 -0.13394,0.6697 -0.133937,0.78131 -0.357172,0.89292 -0.192865,1.11619 z"
             id="path6884" />
          <path
             style="fill:#624010;fill-opacity:1;stroke:none;stroke-width:0.26458332px;stroke-linecap:butt;stroke-linejoin:miter;stroke-opacity:1"
             d="m 72.626685,232.11854 -0.126281,-2.02046 0.883952,-2.02046 -0.332113,-0.10473 -0.236773,0.47354 -0.29991,0.86817 -0.315698,0.94709 0.04736,0.29991 v 0.3157 0.58404 l -0.07652,0.42207 z"
             id="path6886" />
          <g
             id="g5900"
             transform="translate(223.65336,-32.87873)">
            <path
               id="path5890"
               d="m -149.02926,272.66778 1.2501,-0.44646 0.35717,0.13393 1.02686,0.35716 1.38404,-0.35716 0.53575,-0.13393 0.75899,-0.84828 0.84828,-0.31252 1.02686,-0.80365 0.6697,-0.53576 0.49111,-0.49109 0.5804,0.44646 0.75899,0.22323 0.62504,-0.0893 v -1.11614 l 0.75899,-0.26789 0.66969,-0.26787 0.84828,-0.89294 1.07151,-0.89292 1.33939,-0.89291 0.80364,-0.89294 1.51797,-1.47332 0.44646,-0.89293 0.44646,-0.89293 1.07151,-0.89292 0.44646,-0.93757 0.26788,-1.47333 0.22323,-0.80363 0.26788,-0.53575 0.5804,-0.0893 0.44647,-1.38403 0.26787,1.7412 -0.98221,1.78585 -0.49111,1.42869 -0.49111,1.07151 -0.80364,0.5804 -0.80363,0.93757 -0.93757,1.69656 -0.89293,0.80363 -1.29474,1.11616 -1.56262,1.20545 -0.84828,0.44646 -0.53575,0.89292 -0.93757,0.44647 -0.49111,0.75898 -1.2501,0.49111 -1.1608,0.0893 -0.0446,0.71434 -1.47332,0.31252 -0.80364,0.71434 -0.84828,0.98222 h -0.98221 l -1.69656,-0.17859 -1.02687,-0.0446 z"
               style="fill:#6d3e06;fill-opacity:1;stroke:none;stroke-width:0.26458332px;stroke-linecap:butt;stroke-linejoin:miter;stroke-opacity:1" />
            <path
               id="path5893"
               d="m -135.50144,267.5781 -0.84828,0.44645 0.84828,-0.44645 v 0 l 1.65192,0.89294 0.89292,0.62502 0.62505,0.53578 0.80363,-0.22325 0.40182,-0.26787 -0.0893,-0.40182 -1.2501,0.0447 v -0.66971 l -0.22323,-0.71432 0.49111,-0.71435 0.44646,-0.0893 0.0893,-0.58039 -0.22323,-0.53575 0.13394,-1.02687 -2.27696,1.02687 z"
               style="fill:#502b00;fill-opacity:1;stroke:none;stroke-width:0.26458332px;stroke-linecap:butt;stroke-linejoin:miter;stroke-opacity:1" />
            <path
               id="path5895"
               d="m -147.60053,273.20359 -2.14307,0.17854 -0.26787,-0.62505 0.98221,-0.0893 z"
               style="fill:#8b550d;fill-opacity:1;stroke:none;stroke-width:0.26458332px;stroke-linecap:butt;stroke-linejoin:miter;stroke-opacity:1" />
          </g>
          <g
             id="g6037"
             transform="translate(333.80359,12.80208)">
            <g
               id="g6028">
              <path
                 style="fill:#ae7a26;fill-opacity:1;stroke:none;stroke-width:0.26458332px;stroke-linecap:butt;stroke-linejoin:miter;stroke-opacity:1"
                 d="m -267.33206,235.69167 -0.50512,-0.63139 0.94708,-0.44198 -0.0631,-0.82081 0.3157,-0.75767 0.50512,0.82081 0.82081,0.3157 h 0.82081 v 0.88395 l -1.32592,0.37884 -0.50512,0.37883 v 0.44198 l 1.38906,0.50511 0.12629,0.88396 -0.9471,0.69453 -0.82082,0.56825 -1.26278,-1.01023 -1.07336,-0.63139 0.63138,-0.56826 0.75769,-0.0631 z"
                 id="path6019" />
              <path
                 style="fill:#ae7a26;fill-opacity:1;stroke:none;stroke-width:0.26458332px;stroke-linecap:butt;stroke-linejoin:miter;stroke-opacity:1"
                 d="m -264.30137,230.45111 1.01023,1.26278 -1.13651,0.56826 -0.69453,0.44197 v -1.57848 z"
                 id="path6021" />
              <path
                 style="fill:#ce9d5a;fill-opacity:1;stroke:none;stroke-width:0.26458332px;stroke-linecap:butt;stroke-linejoin:miter;stroke-opacity:1"
                 d="m -265.31157,234.17633 0.80473,-0.60752 0.0558,-0.34601 -0.39067,-0.27904 -0.66968,0.17858 -0.37949,-0.23439 -0.2344,-0.61389 -0.47995,-0.39065 -0.0323,1.15641 0.50511,0.82081 z"
                 id="path6023" />
            </g>
            <path
               id="path6030"
               d="m -266.60522,231.88341 -0.87059,-0.82596 v -0.98222 l -0.66971,-0.22323 0.44648,-0.98222 -0.98224,-0.53575 -1.16078,0.53575 -0.98224,0.17859 -0.49109,0.49111 0.4018,0.75899 1.07153,0.5804 1.42867,1.38403 0.13394,1.42868 0.44227,1.3687 0.94708,-0.44198 -0.0631,-0.82081 0.31567,-0.75767 z"
               style="fill:#c28f4d;fill-opacity:1;stroke:none;stroke-width:0.26458332px;stroke-linecap:butt;stroke-linejoin:miter;stroke-opacity:1" />
          </g>
          <path
             style="fill:url(#linearGradient6177);fill-opacity:1;stroke:none;stroke-width:0.26458332px;stroke-linecap:butt;stroke-linejoin:miter;stroke-opacity:1;filter:url(#filter6860)"
             d="m 81.002086,207.68561 1.96444,-0.26788 2.32161,-1.42868 1.42868,-0.80363 1.1608,-1.1608 1.96444,0.62504 0.80363,-0.62504 -1.1608,-1.60727 -2.4109,0.26788 -1.60727,-0.17859 -0.71434,-0.53575 -3.12524,-0.44647 -2.67877,0.17859 -1.60727,2.58948 0.44646,1.42868 1.07151,1.60727 z"
             id="path6165" />
        </g>
      </g>
    </g>
  </g>
</svg>
